<?xml version="1.0" standalone="no"?>
<!DOCTYPE svg PUBLIC "-//W3C//DTD SVG 20010904//EN"
 "http://www.w3.org/TR/2001/REC-SVG-20010904/DTD/svg10.dtd">
<svg version="1.0" xmlns="http://www.w3.org/2000/svg"
 width="500.000000pt" height="500.000000pt" viewBox="0 0 500.000000 500.000000"
 preserveAspectRatio="xMidYMid meet">

<g transform="translate(0.000000,500.000000) scale(0.100000,-0.100000)"
fill="#000000" stroke="none">
<path d="M0 2500 l0 -2500 2500 0 2500 0 0 2500 0 2500 -2500 0 -2500 0 0
-2500z m2523 1615 c9 -19 14 -42 10 -51 -5 -13 -2 -15 15 -10 25 8 41 -13 20
-25 -16 -9 -32 -44 -42 -91 -10 -47 -41 -36 -55 17 -6 25 -20 54 -32 66 -24
24 -16 41 17 33 24 -6 34 9 14 21 -9 6 19 74 31 75 3 0 13 -16 22 -35z m-83
-147 c27 -44 26 -72 -1 -35 -25 33 -56 35 -68 5 -8 -21 -10 -21 -16 -5 -4 9
-4 28 -1 42 5 20 13 25 36 25 23 0 35 -7 50 -32z m208 0 c2 -15 -1 -35 -7 -45
-9 -16 -10 -14 -11 10 0 21 -5 27 -22 27 -12 0 -33 -12 -46 -27 l-23 -28 7 25
c13 51 33 71 67 68 26 -2 33 -8 35 -30z m-534 -135 c6 2 10 15 9 28 -1 22 3
24 44 26 44 2 45 1 40 -25 -3 -15 -1 -35 4 -44 11 -20 6 -22 -20 -9 -21 12
-47 -2 -36 -19 11 -18 91 -51 108 -44 8 3 21 19 27 34 11 28 14 29 33 15 36
-25 75 -19 109 18 17 18 26 23 20 12 -16 -32 -43 -51 -105 -74 -32 -11 -69
-28 -82 -37 -23 -15 -26 -14 -52 4 -15 11 -37 29 -47 41 -11 12 -25 21 -32 21
-8 0 -21 11 -30 25 -9 14 -33 30 -58 37 -22 6 -45 15 -49 19 -11 9 49 23 62
15 5 -4 13 -1 17 6 6 9 11 2 18 -20 5 -18 14 -31 20 -29z m186 35 c38 -27 37
-34 -1 -54 -42 -21 -48 -10 -40 69 1 11 10 9 41 -15z m290 7 c0 -12 -17 -15
-90 -15 -73 0 -90 3 -90 15 0 12 17 15 90 15 73 0 90 -3 90 -15z m157 -33 c1
-23 1 -42 -2 -42 -13 0 -75 35 -75 42 0 5 8 12 18 15 9 4 21 13 25 20 15 25
31 8 34 -35z m133 18 c0 -38 16 -39 25 -1 6 28 7 28 52 20 54 -10 63 -16 37
-24 -42 -14 -83 -35 -106 -55 -103 -92 -108 -95 -141 -81 -18 7 -59 22 -92 33
-59 20 -105 52 -105 72 0 5 13 -2 28 -17 30 -29 60 -34 94 -16 17 9 24 6 47
-22 l28 -33 48 25 c27 13 51 30 53 37 5 16 -40 16 -56 0 -9 -9 -12 -9 -12 -1
0 7 5 15 10 18 6 4 8 21 4 41 l-6 34 46 0 c44 0 46 -1 46 -30z m-364 -28 c6
-4 16 -17 22 -29 10 -18 9 -22 -6 -25 -27 -5 193 -113 310 -153 57 -19 136
-38 176 -41 l72 -7 0 -188 c0 -159 2 -189 15 -189 21 0 38 38 32 75 -5 29 -3
32 16 28 18 -4 16 0 -11 24 -28 24 -32 33 -27 56 9 33 31 35 62 5 l23 -21 0
23 c0 33 39 110 56 110 7 0 29 7 47 16 26 13 39 14 53 6 18 -11 18 -11 -2 -12
-12 0 -32 -9 -45 -20 l-24 -19 25 -1 c24 -2 23 -2 -7 -16 -39 -17 -49 -34 -56
-103 -8 -68 -44 -124 -102 -159 -25 -15 -45 -31 -45 -35 0 -10 58 24 120 71
25 18 97 84 160 146 147 144 219 201 300 240 201 96 406 -33 402 -254 0 -30
-6 -68 -12 -85 -51 -135 -220 -185 -317 -93 -17 16 -33 41 -36 54 -5 29 9 42
16 14 17 -64 159 -80 217 -25 64 62 73 185 19 270 -39 61 -95 89 -179 89 -99
0 -171 -41 -311 -175 -31 -30 -81 -77 -111 -106 -31 -29 -51 -54 -44 -57 6 -2
0 -5 -13 -5 -13 -1 -21 -4 -18 -8 9 -8 -74 -63 -133 -88 -25 -10 -51 -23 -57
-28 -14 -11 -18 -113 -5 -121 5 -3 22 -2 38 3 26 7 30 12 34 57 7 64 14 74 56
74 38 0 43 -9 14 -28 -14 -8 -20 -23 -20 -47 0 -49 -32 -79 -73 -71 l-31 6 22
-20 c31 -29 28 -64 -8 -90 -17 -12 -28 -26 -25 -31 4 -5 2 -9 -4 -9 -5 0 -9
-14 -9 -30 1 -32 -26 -70 -49 -70 -7 0 -21 -16 -30 -36 -17 -35 -17 -36 2 -50
87 -64 235 -22 235 66 0 21 -8 35 -26 46 -24 16 -26 16 -56 -6 l-30 -22 7 23
c26 91 155 69 155 -27 0 -50 -57 -106 -126 -124 -48 -12 -48 -13 -22 -22 19
-6 45 -6 80 1 161 35 348 217 348 340 0 77 -63 118 -110 71 -24 -24 -25 -32
-4 -72 12 -22 12 -28 2 -23 -37 22 -48 40 -48 81 0 55 33 84 95 84 77 0 122
-59 112 -148 -2 -26 -8 -55 -12 -65 -6 -15 -4 -16 20 -7 14 5 55 10 89 10 147
0 276 -126 226 -221 -10 -18 -7 -19 42 -19 120 -1 203 -82 128 -127 -23 -13
-28 -22 -24 -38 7 -20 6 -20 -15 -1 -12 11 -21 31 -21 47 0 27 22 59 41 59 23
0 5 19 -31 34 -50 20 -90 20 -134 2 -47 -20 -59 -41 -18 -33 46 9 82 -7 82
-37 0 -40 -33 -54 -135 -60 -24 -1 -31 3 -33 22 -2 15 5 33 19 48 l22 24 -27
0 c-42 0 -86 28 -102 65 -18 44 -18 68 1 34 19 -35 63 -53 98 -40 80 31 50
146 -44 171 -64 17 -195 -19 -264 -74 -20 -15 -20 -15 5 -16 14 0 44 -9 66
-19 34 -15 45 -28 59 -65 15 -39 16 -53 7 -85 -17 -55 -45 -76 -98 -75 -87 2
-136 87 -78 133 33 26 39 26 64 1 25 -25 27 -49 1 -26 -25 23 -51 11 -51 -25
0 -32 23 -49 68 -49 83 0 88 139 6 170 -46 18 -86 10 -187 -36 -163 -75 -251
-77 -358 -9 l-54 34 -70 -77 c-111 -120 -279 -217 -400 -229 -121 -13 -366
128 -476 274 l-24 32 -54 -34 c-107 -68 -194 -66 -358 9 -101 46 -141 54 -187
36 -82 -31 -77 -170 6 -170 45 0 68 17 68 49 0 36 -26 48 -51 25 -26 -23 -24
1 1 26 25 25 31 25 64 -1 58 -46 9 -131 -78 -133 -53 -1 -81 20 -98 75 -9 32
-8 46 7 85 14 37 25 50 59 65 22 10 52 19 66 19 25 1 25 1 5 16 -69 55 -200
91 -264 74 -94 -25 -124 -140 -44 -171 35 -13 79 5 98 40 19 34 19 10 1 -34
-16 -37 -60 -65 -102 -65 l-27 0 22 -24 c14 -15 21 -33 19 -48 -2 -19 -9 -23
-33 -22 -102 6 -135 20 -135 60 0 30 36 46 82 37 41 -8 29 13 -18 33 -44 18
-84 18 -134 -2 -36 -15 -54 -34 -31 -34 19 0 41 -32 41 -59 0 -16 -9 -36 -21
-47 -21 -19 -22 -19 -15 1 4 16 -1 25 -24 38 -75 45 8 126 128 127 49 0 52 1
42 19 -50 95 79 221 226 221 34 0 75 -5 89 -10 24 -9 26 -8 20 7 -4 10 -10 39
-12 65 -10 89 35 148 112 148 62 0 95 -29 95 -84 0 -41 -11 -59 -48 -81 -10
-5 -10 1 2 23 21 40 20 48 -4 72 -26 26 -58 25 -87 -2 -55 -51 -14 -170 96
-278 95 -92 242 -155 309 -132 26 9 26 10 -22 22 -69 18 -126 74 -126 124 0
96 129 118 155 27 l7 -23 -30 22 c-30 22 -32 22 -56 6 -57 -36 -18 -116 66
-138 50 -13 104 -3 143 26 19 14 19 14 0 50 -11 20 -25 36 -31 36 -21 0 -47
40 -46 70 0 16 -4 30 -9 30 -6 0 -8 4 -4 9 3 5 -8 19 -25 31 -36 26 -39 61 -8
90 l22 20 -31 -6 c-41 -8 -73 22 -73 71 0 24 -6 39 -20 47 -29 19 -24 28 15
28 41 0 55 -20 55 -79 0 -43 1 -45 43 -55 l27 -6 0 64 0 65 -47 21 c-70 31
-153 82 -147 92 3 4 -5 8 -18 9 -13 0 -18 3 -11 5 7 3 -5 20 -29 42 -23 20
-73 68 -112 106 -152 147 -224 189 -326 190 -129 1 -213 -82 -214 -212 -1
-113 56 -184 147 -184 67 0 113 26 130 72 3 8 6 1 6 -17 1 -22 -8 -40 -30 -62
-84 -85 -236 -53 -304 63 -70 119 -8 314 119 372 162 74 279 24 553 -239 139
-134 245 -217 275 -217 7 0 -10 16 -39 35 -63 42 -92 88 -100 157 -7 68 -17
85 -56 102 -30 14 -31 14 -7 16 l25 1 -24 19 c-13 11 -33 20 -45 20 -18 1 -18
2 -5 10 10 6 33 3 68 -8 43 -14 54 -23 71 -58 11 -22 20 -51 20 -64 l0 -23 23
21 c26 25 57 29 57 8 0 -8 3 -21 6 -29 3 -10 -8 -25 -33 -42 -35 -25 -36 -27
-11 -23 25 5 26 3 21 -27 -5 -33 10 -75 27 -75 6 0 11 79 12 188 l3 187 70 8
c39 4 108 19 155 33 99 29 364 156 338 162 -16 3 -17 6 -3 33 15 29 30 35 51
21z m-1316 -291 c-51 -11 -95 -36 -124 -73 -14 -18 -26 -28 -26 -21 0 7 14 28
31 48 32 36 72 53 124 53 29 0 29 -1 -5 -7z m2652 -1 c20 -6 50 -26 67 -46 47
-53 37 -60 -13 -9 -31 31 -56 46 -83 50 -52 9 -63 13 -33 14 14 1 42 -4 62 -9z
m-2557 -10 c8 -13 -5 -13 -25 0 -13 8 -13 10 2 10 9 0 20 -4 23 -10z m2373
-25 c-36 -19 -69 -38 -72 -43 -3 -5 5 -14 18 -20 20 -9 25 -8 29 9 3 10 11 19
17 19 9 0 11 -15 8 -50 -6 -61 8 -62 37 -3 29 59 44 73 76 73 29 0 38 -13 18
-26 -8 -5 -8 -9 1 -14 7 -4 1 -9 -17 -13 -40 -8 -80 -51 -114 -124 -35 -72
-68 -98 -107 -85 -31 10 -44 52 -17 52 12 0 16 -6 12 -19 -3 -12 1 -22 10 -25
22 -9 52 11 59 38 6 24 -10 66 -24 66 -12 0 -52 39 -52 50 0 6 8 10 18 10 18
0 28 35 12 45 -4 3 -37 -21 -72 -53 -79 -71 -153 -132 -161 -132 -4 0 15 19
40 43 26 23 64 57 84 75 65 58 143 114 194 138 76 35 79 27 3 -11z m-2241 -49
c70 -50 239 -196 227 -196 -10 0 -82 58 -158 127 -38 34 -73 60 -77 57 -15 -9
-5 -44 13 -44 24 0 23 -16 -4 -38 -64 -52 -72 -73 -40 -112 23 -28 63 -21 55
10 -4 14 0 20 12 20 27 0 14 -43 -17 -54 -39 -14 -71 12 -106 87 -31 65 -89
127 -120 127 -11 0 -17 9 -18 25 -2 21 3 25 26 25 32 0 53 -21 75 -77 24 -61
43 -56 38 10 -4 52 -4 52 15 31 16 -19 21 -20 41 -9 23 12 22 13 -30 44 -30
18 -43 29 -29 25 14 -3 57 -30 97 -58z m-274 -26 c-23 -14 -33 -27 -33 -45 0
-30 25 -43 52 -26 15 9 20 9 24 -3 3 -8 3 -20 -1 -26 -3 -5 1 -10 9 -10 8 0
19 7 24 16 7 12 11 13 17 4 9 -15 -26 -64 -49 -68 -54 -11 -101 48 -89 111 5
27 45 67 67 67 6 0 -4 -9 -21 -20z m2712 -3 c55 -47 23 -152 -45 -152 -24 0
-38 7 -53 27 -11 15 -16 31 -12 38 6 9 10 8 17 -4 5 -9 16 -16 24 -16 8 0 12
5 9 10 -4 6 -4 18 -1 26 4 12 9 12 24 3 27 -17 52 -4 52 26 0 18 -10 31 -32
45 -18 11 -28 20 -21 20 7 0 24 -10 38 -23z m65 -152 c-23 -25 -77 -45 -115
-44 -11 0 1 6 27 13 52 14 98 41 98 58 0 6 3 8 7 5 3 -4 -4 -18 -17 -32z
m-2782 -30 c53 -9 61 -13 29 -14 -37 -1 -88 21 -112 50 -18 21 -16 20 13 -3
18 -15 49 -30 70 -33z m462 17 c0 -15 -55 -61 -92 -76 -73 -31 -146 -10 -187
54 -14 22 -12 21 21 -7 66 -56 155 -54 214 6 30 29 44 37 44 23z m1807 -11 c6
-10 32 -29 58 -41 61 -30 121 -22 173 23 33 28 35 29 21 7 -41 -64 -114 -85
-187 -54 -37 15 -92 61 -92 76 0 14 15 8 27 -11z m-2247 -166 c0 -8 -7 -15
-15 -15 -8 0 -15 7 -15 15 0 8 7 15 15 15 8 0 15 -7 15 -15z m90 0 c0 -8 -4
-15 -10 -15 -5 0 -10 7 -10 15 0 8 5 15 10 15 6 0 10 -7 10 -15z m2500 0 c0
-8 -4 -15 -10 -15 -5 0 -10 7 -10 15 0 8 5 15 10 15 6 0 10 -7 10 -15z m100 0
c0 -8 -7 -15 -15 -15 -8 0 -15 7 -15 15 0 8 7 15 15 15 8 0 15 -7 15 -15z
m-2777 -39 c7 -16 -1 -26 -20 -26 -7 0 -13 9 -13 20 0 23 25 27 33 6z m195
-22 c13 -14 22 -38 22 -56 0 -34 -33 -78 -59 -78 -12 0 -12 3 -3 12 15 15 15
61 0 76 -18 18 -72 14 -99 -7 -14 -10 -51 -67 -84 -126 -98 -176 -181 -235
-330 -235 -126 0 -259 53 -330 132 -50 56 -62 101 -41 152 18 44 55 68 103 68
70 0 108 -80 63 -133 l-20 -24 6 33 c12 60 -44 94 -86 52 -67 -67 41 -179 216
-225 100 -26 222 -17 269 20 19 14 17 15 -22 9 -94 -14 -163 25 -163 91 0 43
37 85 75 85 26 0 65 -31 65 -52 0 -9 -3 -9 -12 0 -19 19 -46 14 -64 -14 -16
-24 -16 -27 3 -52 18 -24 27 -27 83 -27 59 0 63 2 100 42 60 64 73 140 34 201
-18 28 -64 29 -88 3 -23 -25 -18 -75 8 -79 30 -6 42 15 21 38 -20 22 -14 26
16 10 21 -12 25 -50 7 -68 -21 -21 -65 -14 -87 14 -28 36 -26 66 5 103 21 26
33 31 68 31 48 0 80 -25 91 -73 l7 -27 37 51 c62 89 138 111 189 53z m52 26
c0 -5 -4 -10 -10 -10 -5 0 -10 5 -10 10 0 6 5 10 10 10 6 0 10 -4 10 -10z
m2360 0 c0 -5 -4 -10 -10 -10 -5 0 -10 5 -10 10 0 6 5 10 10 10 6 0 10 -4 10
-10z m166 -16 c14 -10 41 -39 59 -66 l33 -49 7 28 c11 48 43 73 91 73 35 0 47
-5 68 -31 31 -37 33 -67 5 -103 -22 -28 -66 -35 -87 -14 -18 18 -14 56 7 68
30 16 36 12 16 -10 -21 -23 -9 -44 21 -38 26 4 31 54 8 79 -24 26 -70 25 -88
-3 -39 -61 -26 -137 34 -201 37 -40 41 -42 100 -42 56 0 65 3 83 27 19 25 19
28 3 52 -18 28 -45 33 -64 14 -9 -9 -12 -9 -12 0 0 21 39 52 65 52 38 0 75
-42 75 -85 0 -66 -69 -105 -163 -91 -39 6 -41 5 -22 -9 47 -37 169 -46 269
-20 175 46 283 158 216 225 -42 42 -98 8 -86 -52 l6 -33 -20 24 c-45 53 -7
133 63 133 48 0 85 -24 103 -68 21 -51 9 -96 -41 -152 -71 -79 -204 -132 -330
-132 -149 0 -232 59 -330 235 -33 59 -70 116 -84 126 -27 21 -81 25 -99 7 -15
-15 -15 -61 0 -76 23 -23 -14 -13 -39 10 -41 38 -23 116 31 138 27 12 69 5
102 -16z m94 6 c0 -11 -6 -20 -13 -20 -19 0 -27 10 -20 26 8 21 33 17 33 -6z
m-3266 -46 c9 -3 16 -12 16 -20 0 -8 6 -23 12 -34 15 -23 1 -55 -23 -55 -8 0
-19 -7 -25 -15 -16 -20 -66 2 -58 25 4 9 0 21 -9 28 -22 17 -4 61 22 54 12 -3
22 1 25 9 6 15 16 17 40 8z m3672 -8 c3 -8 13 -12 25 -9 26 7 44 -37 22 -54
-9 -7 -13 -19 -9 -28 8 -23 -42 -45 -58 -25 -6 8 -17 15 -25 15 -24 0 -38 32
-23 55 6 11 12 26 12 34 0 25 47 35 56 12z m-2561 -8 c30 -14 32 -24 5 -38
-11 -6 -22 -26 -26 -45 -5 -28 -9 -33 -20 -24 -10 8 -20 6 -40 -10 -16 -12
-41 -21 -62 -21 -33 0 -34 1 -17 14 24 17 48 96 34 112 -10 12 -6 14 83 22 9
1 29 -3 43 -10z m1524 2 c18 0 21 -3 13 -13 -15 -17 8 -95 33 -113 17 -13 16
-14 -17 -14 -21 0 -46 9 -62 21 -20 16 -30 18 -40 10 -11 -9 -15 -4 -20 24 -4
19 -15 39 -26 45 -11 6 -20 14 -20 19 0 16 46 31 80 26 19 -3 46 -5 59 -5z
m-2979 -204 c0 -3 -4 -8 -10 -11 -5 -3 -10 -1 -10 4 0 6 5 11 10 11 6 0 10 -2
10 -4z m4340 -6 c0 -5 -2 -10 -4 -10 -3 0 -8 5 -11 10 -3 6 -1 10 4 10 6 0 11
-4 11 -10z m-4292 -71 c-2 -6 -8 -10 -13 -10 -5 0 -11 4 -13 10 -2 6 4 11 13
11 9 0 15 -5 13 -11z m4250 0 c-2 -6 -8 -10 -13 -10 -5 0 -11 4 -13 10 -2 6 4
11 13 11 9 0 15 -5 13 -11z m-4168 -64 c0 -8 -7 -15 -15 -15 -8 0 -15 7 -15
15 0 8 7 15 15 15 8 0 15 -7 15 -15z m4090 0 c0 -8 -7 -15 -15 -15 -8 0 -15 7
-15 15 0 8 7 15 15 15 8 0 15 -7 15 -15z m-4000 -49 c0 -8 -4 -17 -8 -20 -13
-8 -35 11 -28 23 10 16 36 14 36 -3z m253 -3 c31 -15 31 -16 11 -26 -22 -9
-44 -46 -44 -74 0 -12 -3 -13 -15 -3 -12 10 -20 8 -41 -9 -16 -12 -41 -21 -62
-21 -33 0 -34 1 -17 14 20 15 47 90 38 111 -4 13 11 17 80 23 10 1 32 -5 50
-15z m3491 7 c11 0 16 -5 13 -14 -8 -21 17 -97 38 -112 17 -13 16 -14 -17 -14
-21 0 -46 9 -62 21 -21 17 -29 19 -41 9 -12 -10 -15 -9 -15 3 0 28 -22 65 -43
74 -21 10 -21 10 8 27 19 10 43 14 65 11 19 -3 43 -5 54 -5z m172 -1 c7 -12
-15 -31 -28 -23 -4 3 -8 12 -8 20 0 17 26 19 36 3z m-2424 -25 c11 -22 10 -28
-7 -40 -26 -19 -42 -18 -55 5 -15 29 -12 41 13 51 33 13 36 12 49 -16z m962 5
c12 -11 -9 -59 -27 -59 -7 0 -22 6 -32 14 -17 12 -18 17 -7 41 10 21 17 25 35
20 12 -4 26 -11 31 -16z m-1398 -10 c10 -17 -13 -36 -27 -22 -12 12 -4 33 11
33 5 0 12 -5 16 -11z m1800 0 c10 -17 -13 -36 -27 -22 -12 12 -4 33 11 33 5 0
12 -5 16 -11z m-1612 -34 c3 -9 -1 -18 -10 -22 -19 -7 -39 11 -30 26 10 16 33
13 40 -4z m116 -15 c0 -24 -25 -33 -41 -13 -11 13 -10 17 5 29 22 16 36 10 36
-16z m1210 2 c0 -15 -23 -30 -36 -25 -14 5 -19 35 -8 46 8 7 44 -10 44 -21z
m106 17 c9 -15 -11 -33 -30 -26 -9 4 -13 13 -10 22 7 17 30 20 40 4z m-1648
-57 c2 -7 -3 -12 -12 -12 -9 0 -16 7 -16 16 0 17 22 14 28 -4z m1852 3 c0 -8
-7 -15 -15 -15 -16 0 -20 12 -8 23 11 12 23 8 23 -8z m-1934 -52 c-10 -10 -19
5 -10 18 6 11 8 11 12 0 2 -7 1 -15 -2 -18z m2004 6 c0 -5 -4 -9 -10 -9 -5 0
-10 7 -10 16 0 8 5 12 10 9 6 -3 10 -10 10 -16z m-2047 -447 c-5 -45 -10 -55
-30 -63 -27 -10 -46 -3 -40 14 10 29 -13 47 -62 47 -55 0 -61 -7 -61 -76 l0
-44 70 0 70 0 0 -30 0 -30 -70 0 -71 0 3 -67 3 -68 36 -3 c54 -5 88 13 95 48
5 25 11 30 35 30 32 0 34 -7 21 -88 l-7 -43 -163 -2 c-156 -2 -162 -1 -162 18
0 11 10 25 23 30 21 10 22 15 25 173 2 157 2 162 -18 162 -15 0 -20 7 -20 25
l0 24 158 3 c86 2 160 1 164 -2 3 -3 4 -29 1 -58z m650 47 c11 -6 16 -18 13
-32 -3 -12 -8 -39 -11 -59 -5 -32 -10 -38 -30 -38 -19 0 -25 5 -25 21 0 42
-18 59 -64 59 -49 0 -69 -17 -64 -52 2 -16 22 -33 73 -61 101 -55 125 -81 125
-135 0 -95 -114 -153 -244 -123 -55 13 -60 21 -52 85 7 50 10 56 31 56 18 0
25 -7 30 -30 9 -40 30 -60 65 -60 39 0 59 9 71 31 16 30 -5 55 -80 94 -92 49
-116 75 -116 130 0 61 44 107 120 126 35 9 132 1 158 -12z m828 -5 c94 -48
126 -192 68 -311 -50 -104 -203 -145 -301 -80 -90 60 -106 233 -31 335 55 73
180 100 264 56z m967 -41 c-5 -31 -10 -58 -11 -59 -1 -1 -14 -5 -29 -9 -24 -6
-27 -4 -30 27 l-3 33 -55 0 -55 0 -3 -57 -3 -58 71 0 71 0 -3 -27 c-3 -27 -5
-28 -68 -31 -36 -2 -68 -8 -72 -15 -12 -19 -9 -102 4 -115 15 -15 67 -16 103
-2 17 6 27 20 31 40 6 25 11 30 35 30 l29 0 -6 -57 c-4 -32 -9 -61 -13 -65 -3
-4 -77 -8 -164 -10 l-157 -3 0 23 c0 12 4 22 9 22 5 0 17 7 25 16 13 13 16 43
16 170 0 146 -1 154 -19 154 -24 0 -33 13 -25 34 5 13 31 16 162 18 87 2 160
2 163 1 3 -1 2 -28 -3 -60z m-1344 5 c10 -86 9 -88 -24 -88 -25 0 -30 4 -30
23 0 31 -19 55 -52 63 l-28 6 -2 -133 c-3 -203 -1 -212 47 -206 14 1 20 -4 20
-18 0 -19 -8 -20 -112 -23 -108 -3 -113 -2 -113 18 0 13 7 20 19 20 45 0 51
22 51 187 l0 155 -27 -7 c-38 -9 -51 -22 -55 -53 -2 -21 -9 -28 -30 -30 -28
-3 -28 -2 -28 52 0 91 -11 86 185 86 l172 0 7 -52z m853 26 c66 -49 67 -120 3
-183 l-39 -38 42 -64 c23 -35 52 -68 65 -74 15 -6 22 -17 20 -30 -2 -16 -12
-21 -45 -23 -23 -2 -51 2 -63 8 -11 6 -38 47 -61 91 -34 68 -43 80 -62 77 -39
-5 -36 -111 3 -123 11 -3 20 -15 20 -26 0 -17 -8 -19 -90 -19 -83 0 -90 1 -90
20 0 11 4 20 9 20 5 0 17 7 25 16 13 13 16 43 16 170 l0 154 -25 0 c-18 0 -25
5 -25 18 0 10 3 22 7 26 4 4 65 6 135 4 110 -3 130 -6 155 -24z m-1686 -207
c-1 -4 -1 -16 -1 -27 0 -21 -11 -25 -102 -35 l-58 -6 0 30 c0 29 2 30 58 36
31 3 64 8 72 9 20 5 32 2 31 -7z m-1033 -479 c11 -11 17 -68 7 -68 -2 0 -15 5
-28 11 -18 8 -32 7 -60 -5 -53 -22 -60 0 -12 41 40 34 72 42 93 21z m3697 -21
c48 -41 41 -63 -12 -41 -28 12 -42 13 -60 5 -33 -15 -33 -15 -33 17 0 60 47
69 105 19z m-1871 -12 c5 -13 89 -15 671 -15 442 0 664 -3 660 -10 -4 -7 -237
-10 -666 -10 -433 0 -659 -3 -659 -10 0 -7 232 -10 675 -10 578 0 681 2 712
15 19 8 49 15 65 15 32 0 88 -25 88 -39 0 -5 -20 -17 -45 -27 -42 -16 -48 -16
-88 0 -38 14 -118 16 -728 16 l-686 0 -10 -32 -10 -33 -13 33 -12 32 -686 0
c-611 0 -691 -2 -729 -16 -40 -16 -46 -16 -88 0 -25 10 -45 22 -45 27 0 14 56
39 88 39 16 0 46 -7 65 -15 31 -13 134 -15 712 -15 443 0 675 3 675 10 0 7
-226 10 -659 10 -429 0 -662 3 -666 10 -4 7 218 10 658 10 579 0 666 2 677 15
7 8 18 15 25 15 7 0 15 -7 19 -15z m-1689 -15 c3 -11 15 -25 26 -30 18 -10 18
-13 -13 -50 -39 -49 -60 -50 -86 -6 -19 33 -20 36 -4 70 13 27 23 35 44 36 18
0 29 -6 33 -20z m3407 -16 c16 -34 15 -37 -4 -70 -26 -44 -47 -43 -86 6 -31
37 -31 40 -13 50 11 5 23 19 26 30 4 14 15 20 33 20 21 -1 31 -9 44 -36z
m-3682 -30 c0 -17 -22 -14 -28 4 -2 7 3 12 12 12 9 0 16 -7 16 -16z m123 1
c-3 -14 -29 -18 -61 -10 -21 5 -23 8 -11 16 18 12 75 7 72 -6z m3705 6 c11 -7
10 -10 -3 -15 -38 -14 -87 -2 -68 18 9 9 56 7 71 -3z m80 -3 c-6 -18 -28 -21
-28 -4 0 9 7 16 16 16 9 0 14 -5 12 -12z m-3793 -38 c36 14 35 14 35 -24 0
-69 -58 -70 -112 -2 -33 41 -28 49 17 30 25 -10 41 -11 60 -4z m3728 -25 c-55
-69 -113 -68 -113 1 0 38 -1 38 35 24 18 -7 35 -6 58 4 45 19 51 10 20 -29z
m-2548 23 c14 -6 25 -14 25 -18 0 -11 -99 5 -112 18 -16 16 51 16 87 0z m1376
-2 c-12 -14 -111 -27 -111 -14 0 10 52 26 89 27 28 1 31 -1 22 -13z m-920 -16
c23 -13 25 -33 4 -50 -21 -18 -46 3 -27 22 17 17 15 28 -6 28 -46 0 -58 -77
-20 -126 22 -27 10 -26 -24 4 -25 21 -24 86 2 112 22 22 42 25 71 10z m449 -8
c16 -13 22 -29 22 -57 l1 -40 11 32 c15 42 26 52 26 24 0 -15 -16 -38 -42 -62
-45 -41 -72 -54 -39 -18 41 44 31 120 -17 127 -21 3 -22 2 -10 -17 17 -28 -3
-51 -27 -31 -19 16 -19 25 1 44 20 21 47 20 74 -2z m-669 -24 c27 -27 31 -29
25 -10 -13 40 13 23 51 -35 48 -71 81 -95 141 -104 l47 -6 -51 -2 c-32 0 -56
-7 -64 -16 -13 -16 -7 -45 9 -45 6 0 8 7 5 15 -4 8 -1 15 4 15 19 0 22 -17 6
-31 -12 -10 -18 -9 -32 5 -14 13 -14 20 -4 36 11 19 10 20 -26 20 -57 0 -107
-36 -107 -78 0 -18 5 -31 10 -29 6 1 9 8 8 16 -1 9 2 10 9 3 16 -16 5 -47 -19
-50 -24 -4 -37 14 -46 64 -6 32 10 56 58 82 16 9 17 11 3 12 -9 0 -31 16 -49
35 -60 63 -120 38 -68 -29 l20 -26 -40 0 c-45 0 -71 20 -71 55 0 13 -5 25 -11
27 -32 11 43 78 87 78 13 0 14 3 4 15 -11 13 -7 15 28 15 32 0 47 -7 73 -32z
m920 18 c-9 -11 -5 -15 21 -21 18 -4 48 -9 66 -10 18 -1 40 -9 49 -18 26 -26
7 -32 -25 -8 -39 27 -46 27 -27 -2 14 -22 14 -28 -1 -63 -20 -48 -28 -54 -78
-54 l-39 0 21 23 c24 25 30 66 10 68 -30 3 -45 -4 -75 -37 -18 -19 -40 -34
-50 -34 -11 -1 -5 -8 18 -20 44 -23 49 -33 40 -84 -6 -42 -28 -63 -55 -53 -19
7 -22 42 -4 53 8 5 9 2 5 -9 -8 -22 8 -30 23 -12 29 35 -26 95 -95 103 -45 5
-46 4 -40 -20 8 -32 -18 -57 -40 -38 -8 7 -12 16 -9 21 9 15 22 10 27 -8 4
-17 4 -17 12 0 12 29 -13 47 -69 48 l-51 2 47 6 c59 8 92 32 141 102 41 59 64
75 54 40 -5 -19 -2 -18 29 9 25 21 45 30 71 30 29 0 33 -3 24 -14z m-1506 -17
c-22 -11 -58 -37 -80 -58 -48 -45 -79 -60 -71 -33 5 14 -2 20 -26 27 -20 6
-40 23 -52 44 l-19 33 33 -17 c43 -22 91 -21 160 4 73 26 107 26 55 0z m200
11 c-11 -5 -33 -9 -50 -9 -23 -1 -26 2 -15 9 8 5 31 9 50 9 29 0 31 -2 15 -9z
m1655 0 c12 -8 10 -10 -10 -9 -14 0 -34 4 -45 9 -17 7 -16 9 10 9 17 0 37 -4
45 -9z m188 -10 c77 -24 140 -26 171 -4 23 16 23 16 11 -7 -21 -40 -42 -59
-66 -59 -18 0 -21 -4 -17 -21 6 -20 5 -20 -23 -6 -16 8 -42 30 -59 47 -16 18
-48 41 -70 51 -53 24 -26 24 53 -1z m-1675 -4 c-102 -32 -138 -78 -137 -173 1
-47 -1 -51 -16 -43 -21 11 -30 32 -30 71 0 25 -4 29 -27 29 l-28 0 35 21 c19
12 50 35 69 51 45 40 87 57 136 57 l40 0 -42 -13z m1325 -2 c20 -8 48 -26 62
-39 14 -12 43 -35 64 -49 37 -25 38 -26 12 -26 -23 0 -26 -4 -26 -33 0 -32
-23 -77 -40 -77 -4 0 -6 17 -3 38 6 47 -11 114 -36 136 -11 10 -46 28 -78 42
-53 22 -55 24 -25 24 18 0 49 -7 70 -16z m-1645 -22 c-21 -37 -12 -67 16 -52
28 14 31 13 31 -15 0 -48 -89 -54 -104 -7 -9 27 8 67 36 86 33 23 39 20 21
-12z m207 23 c0 -9 -79 -45 -97 -45 -31 1 38 50 70 50 15 0 27 -2 27 -5z m445
-40 c6 -29 6 -29 -9 -11 -9 11 -16 29 -16 40 0 28 17 8 25 -29z m370 -18 c17
-20 46 -43 65 -51 21 -9 28 -15 17 -16 -10 0 -27 5 -39 11 -11 6 -22 8 -25 6
-3 -3 8 -12 24 -21 15 -8 23 -15 16 -16 -15 0 -74 50 -69 59 3 4 -4 20 -15 37
-10 16 -19 36 -18 44 0 13 1 13 7 -1 4 -8 21 -32 37 -52z m752 38 c34 -30 15
-32 -44 -5 -51 22 -54 30 -14 30 18 0 42 -10 58 -25z m157 -6 c31 -37 33 -62
6 -89 -24 -24 -38 -25 -68 -4 -27 19 -31 60 -4 49 9 -3 21 -7 27 -8 14 -3 19
43 6 56 -6 6 -11 15 -11 19 0 17 19 7 44 -23z m-1564 17 c0 -5 -65 -46 -74
-46 -16 0 -3 21 22 34 26 15 52 20 52 12z m538 -40 c-12 -37 -68 -96 -91 -96
-7 1 1 8 16 16 16 9 27 18 24 21 -3 2 -15 -1 -27 -7 -11 -6 -29 -9 -38 -7 -12
3 -10 5 6 6 24 1 112 82 112 103 0 6 2 9 5 7 2 -3 -1 -22 -7 -43z m-58 8 c0
-13 -3 -14 -13 -5 -8 6 -17 8 -20 4 -4 -3 -7 -1 -7 5 0 7 9 12 20 12 12 0 20
-7 20 -16z m240 4 c0 -6 -3 -8 -7 -5 -3 4 -12 2 -20 -4 -10 -9 -13 -8 -13 5 0
9 8 16 20 16 11 0 20 -5 20 -12z m-118 -75 c26 -44 61 -72 109 -87 l44 -13
-28 -12 c-43 -17 -66 -13 -92 15 -30 32 -33 20 -5 -16 25 -32 25 -44 0 -37
-15 4 -20 0 -20 -16 0 -12 -5 -29 -10 -37 -13 -21 -44 -1 -48 32 -2 20 -8 25
-23 21 -24 -7 -24 2 1 34 11 14 20 30 20 36 0 5 -9 -2 -21 -17 -22 -28 -43
-32 -86 -15 l-28 11 37 13 c55 20 83 42 104 80 10 19 21 35 24 35 3 0 13 -12
22 -27z m-352 -88 c-27 -29 -40 -32 -40 -10 0 9 10 20 23 25 37 15 42 11 17
-15z m698 2 c9 -7 10 -13 2 -21 -7 -7 -18 -2 -38 18 l-27 28 25 -7 c14 -4 31
-12 38 -18z"/>
<path d="M2385 3635 c-138 -70 -227 -101 -338 -118 l-78 -11 3 -311 3 -310 31
-77 c76 -186 213 -312 416 -383 l77 -27 78 26 c111 37 196 90 278 171 77 76
121 151 154 259 19 62 21 92 21 360 l0 293 -80 12 c-120 18 -284 79 -399 149
l-46 28 -120 -61z"/>
<path d="M1796 3073 c10 -40 14 -41 14 -5 0 18 -5 32 -10 32 -6 0 -8 -11 -4
-27z"/>
<path d="M3190 3068 c0 -36 4 -35 14 5 4 16 2 27 -4 27 -5 0 -10 -14 -10 -32z"/>
<path d="M1875 2960 c-3 -5 1 -10 9 -10 9 0 16 5 16 10 0 6 -4 10 -9 10 -6 0
-13 -4 -16 -10z"/>
<path d="M3090 2956 c0 -9 7 -12 20 -9 11 3 17 9 14 14 -8 14 -34 10 -34 -5z"/>
<path d="M1862 2924 c2 -9 14 -24 28 -33 24 -15 24 -15 11 2 -7 9 -10 17 -7
17 4 0 1 7 -8 15 -19 20 -28 19 -24 -1z"/>
<path d="M3112 2925 c-7 -8 -10 -15 -6 -15 3 0 0 -8 -7 -17 -13 -17 -13 -17
11 -2 14 9 26 24 28 33 4 20 -9 20 -26 1z"/>
<path d="M3055 2800 c-4 -12 -5 -24 -2 -27 3 -2 8 5 12 17 4 12 5 24 2 27 -3
2 -8 -5 -12 -17z"/>
<path d="M1930 2805 c0 -5 5 -17 10 -25 5 -8 10 -10 10 -5 0 6 -5 17 -10 25
-5 8 -10 11 -10 5z"/>
<path d="M872 2534 c2 -9 13 -23 25 -31 22 -15 23 -15 12 16 -11 32 -43 44
-37 15z"/>
<path d="M1017 2543 c-13 -12 -7 -41 9 -47 29 -11 44 -6 44 13 0 11 5 23 12
27 8 5 9 2 5 -10 -11 -28 3 -39 24 -20 10 9 19 12 19 6 0 -6 -4 -14 -10 -17
-18 -11 -10 -26 12 -23 36 5 33 33 -5 57 -33 20 -96 28 -110 14z"/>
<path d="M3872 2529 c-37 -24 -39 -52 -4 -57 22 -3 30 12 12 23 -5 3 -10 11
-10 17 0 6 9 3 19 -6 21 -19 35 -8 24 20 -4 12 -3 15 5 10 7 -4 12 -16 12 -27
0 -11 7 -19 18 -19 27 0 44 16 40 36 -5 29 -74 30 -116 3z"/>
<path d="M4091 2519 c-11 -31 -10 -31 12 -16 26 17 35 47 14 47 -8 0 -20 -14
-26 -31z"/>
<path d="M650 2930 c0 -5 5 -10 10 -10 6 0 10 5 10 10 0 6 -4 10 -10 10 -5 0
-10 -4 -10 -10z"/>
<path d="M4330 2930 c0 -5 5 -10 10 -10 6 0 10 5 10 10 0 6 -4 10 -10 10 -5 0
-10 -4 -10 -10z"/>
<path d="M1725 2949 c-16 -10 -30 -24 -30 -31 0 -7 -6 -24 -14 -38 -8 -16 3
-9 30 20 24 25 53 50 64 57 l20 12 -20 0 c-11 0 -33 -9 -50 -20z"/>
<path d="M3225 2957 c11 -7 40 -32 64 -57 31 -31 39 -36 27 -17 -9 15 -14 31
-11 36 6 11 -60 51 -83 50 -14 0 -14 -2 3 -12z"/>
<path d="M768 2568 c9 -9 15 -9 24 0 9 9 7 12 -12 12 -19 0 -21 -3 -12 -12z"/>
<path d="M717 2549 c-9 -6 -15 -14 -12 -19 3 -5 -2 -22 -12 -37 -25 -38 -1
-21 37 27 31 39 25 51 -13 29z"/>
<path d="M4208 2568 c9 -9 15 -9 24 0 9 9 7 12 -12 12 -19 0 -21 -3 -12 -12z"/>
<path d="M4270 2520 c38 -48 62 -65 37 -27 -10 15 -15 32 -12 37 3 5 -3 14
-14 19 -38 21 -42 10 -11 -29z"/>
<path d="M2777 1969 c-68 -39 -59 -261 11 -298 49 -26 102 -8 129 42 22 42 22
161 -1 205 -29 56 -91 79 -139 51z"/>
<path d="M3267 1984 c-4 -4 -7 -38 -7 -75 0 -65 1 -69 26 -75 40 -10 78 23 82
73 2 28 -2 44 -15 55 -21 18 -76 32 -86 22z"/>
<path d="M1956 1114 c-18 -17 -21 -61 -6 -84 8 -11 9 -8 4 12 -3 14 -1 36 6
47 17 33 59 26 126 -19 33 -22 64 -40 69 -40 6 0 -6 10 -25 21 -19 12 -50 34
-68 50 -37 32 -82 38 -106 13z"/>
<path d="M2932 1095 l-37 -36 39 26 c68 44 126 24 113 -41 -2 -13 0 -21 4 -18
5 3 9 23 9 44 0 70 -67 82 -128 25z"/>
<path d="M2419 1053 c-13 -16 -12 -17 4 -4 16 13 21 21 13 21 -2 0 -10 -8 -17
-17z"/>
</g>
</svg>
